<svg id="Layer_1" data-name="Layer 1" xmlns="http://www.w3.org/2000/svg" viewBox="0 0 66 93.51"><defs><style>.cls-1{fill:#0bb1c2;}.cls-2{fill:#fff;}</style></defs><title>logo</title><rect class="cls-1" width="66.02" height="93.53"/><polygon class="cls-2" points="20.47 18.71 11.99 18.71 11.99 6.03 13.42 6.03 13.42 17.29 20.47 17.29 20.47 18.71"/><rect class="cls-2" x="36.92" y="12.61" width="4.95" height="1.42"/><path class="cls-2" d="M34.58,12.37A6.34,6.34,0,1,1,28.24,6,6.34,6.34,0,0,1,34.58,12.37Zm-6.34-5a5,5,0,1,0,5,5A5,5,0,0,0,28.24,7.36Z"/><rect class="cls-2" x="11.99" y="37.77" width="35.74" height="1.42"/><path class="cls-2" d="M18.33,33.88a5,5,0,1,1,3.61-8.47l1-.93A6.34,6.34,0,1,0,23,33.15l-1-.94A5,5,0,0,1,18.33,33.88Z"/><polygon class="cls-2" points="47.74 35.22 39.26 35.22 39.26 22.54 40.69 22.54 40.69 33.79 47.74 33.79 47.74 35.22"/><path class="cls-2" d="M34.21,32H27.29l-1.48,3.23H24.4L30,22.54h1.42l5.64,12.68H35.68Zm-0.63-1.42-2.83-6.34-2.83,6.34h5.65Z"/><polygon class="cls-2" points="20.47 59.71 20.47 58.28 13.22 58.28 13.22 58.28 11.99 58.28 11.99 70.97 20.47 70.97 20.47 69.54 13.42 69.54 13.42 65.34 19.84 65.34 19.84 63.91 13.42 63.91 13.42 59.71 20.47 59.71"/><polygon class="cls-2" points="24.89 69.54 32.59 59.71 32.9 59.32 32.9 58.28 22.88 58.28 22.88 59.71 30.89 59.71 23.19 69.54 22.88 69.93 22.88 70.97 32.9 70.97 32.9 69.54 24.89 69.54"/><rect class="cls-2" x="53.61" y="77.87" width="1.42" height="4.95"/><path class="cls-2" d="M21.81,84.26H14.89L13.42,87.5H12l5.64-12.68h1.42L24.7,87.5H23.28Zm-0.63-1.42L18.35,76.5l-2.83,6.34h5.65Z"/><path class="cls-2" d="M51.27,81.16a6.34,6.34,0,1,0-2.39,5l1.38,1.38,1-1-1.38-1.38A6.31,6.31,0,0,0,51.27,81.16Zm-6.34,5a5,5,0,1,1,4-2l-1.62-1.62-1,1,1.62,1.62A5,5,0,0,1,44.93,86.16Z"/><path class="cls-2" d="M36.85,87.5L33,82.24c2-.44,3.36-1.73,3.36-3.63,0-2.63-1.81-3.8-4.93-3.8h-5V87.5h1.42V82.41h3.46l3.74,5.08h1.77Zm-9-6.51V76.24H31.4c1.94,0.08,3.46.75,3.46,2.38S33.34,80.91,31.4,81H27.87Z"/><rect class="cls-2" x="29.23" y="48.35" width="4.95" height="1.42"/><rect class="cls-2" x="25.43" y="41.75" width="1.42" height="12.68"/><path class="cls-2" d="M22.55,48.09a6.34,6.34,0,0,1-6.34,6.34H12V41.75h4.22A6.34,6.34,0,0,1,22.55,48.09Zm-1.38,0a4.93,4.93,0,0,0-5-4.92H13.37V53h2.79A4.93,4.93,0,0,0,21.17,48.09Z"/></svg>