<svg id="Layer_1" data-name="Layer 1" xmlns="http://www.w3.org/2000/svg" viewBox="0 0 36 36"><defs><style>.cls-1{fill:#2b2b2b;}</style></defs><title>pinterestI</title><path class="cls-1" d="M18,0A18,18,0,1,0,36,18,18,18,0,0,0,18,0ZM15.4,17.4a3.3,3.3,0,0,1-.2-2.2,3.1,3.1,0,0,1,.8-1.5,1.5,1.5,0,0,1,2.4.4,2.2,2.2,0,0,1,0,1.3l-0.6,2.2a7.7,7.7,0,0,0-.2,1.4,1.2,1.2,0,0,0,.9,1.2,2.4,2.4,0,0,0,2.6-.9,6.1,6.1,0,0,0,1.2-3.3,6.1,6.1,0,0,0-.2-2.4,3.5,3.5,0,0,0-2.4-2.4,4.5,4.5,0,0,0-3,.1,5,5,0,0,0-3.2,3,3.6,3.6,0,0,0-.1,2.8l0.3,0.6a1.5,1.5,0,0,1,0,1.6H13.5a2.7,2.7,0,0,1-2.1-2.1,6.1,6.1,0,0,1,.3-3.8,6.2,6.2,0,0,1,2.1-2.7,6.7,6.7,0,0,1,3.3-1.3,7.6,7.6,0,0,1,5.4,1.2,5,5,0,0,1,2.1,3.3,8.2,8.2,0,0,1-.3,4.2,5.9,5.9,0,0,1-2,2.9,4.2,4.2,0,0,1-3.8.8,5.3,5.3,0,0,1-1.1-.6l-0.5-.4v0.7a14.1,14.1,0,0,1-1,3.3,5.2,5.2,0,0,1-1.3,1.7l-0.2.2c0-.4-0.1-0.8-0.1-1.2a16.7,16.7,0,0,1,.7-4.9l0.7-2.9A0.5,0.5,0,0,0,15.4,17.4Z"/></svg>