<svg id="Layer_1" data-name="Layer 1" xmlns="http://www.w3.org/2000/svg" viewBox="0 0 66 93.5"><defs><style>.cls-1{fill:#0bb1c2;}.cls-2{fill:#fff;}</style></defs><title>Untitled-3</title><rect class="cls-1" width="66" height="93.53"/><polygon class="cls-2" points="20.5 18.7 12 18.7 12 6 13.4 6 13.4 17.3 20.5 17.3 20.5 18.7"/><rect class="cls-2" x="36.9" y="12.6" width="5" height="1.42"/><path class="cls-2" d="M34.6,12.4A6.3,6.3,0,1,1,28.2,6,6.3,6.3,0,0,1,34.6,12.4Zm-6.3-5a5,5,0,1,0,5,5A5,5,0,0,0,28.2,7.4Z"/><rect class="cls-2" x="12" y="37.8" width="35.7" height="1.42"/><path class="cls-2" d="M18.3,33.9a5,5,0,1,1,3.6-8.5l1-.9a6.3,6.3,0,1,0,.1,8.7l-1-.9A5,5,0,0,1,18.3,33.9Z"/><polygon class="cls-2" points="47.7 35.2 39.3 35.2 39.3 22.5 40.7 22.5 40.7 33.8 47.7 33.8 47.7 35.2"/><path class="cls-2" d="M34.2,32H27.3l-1.5,3.2H24.4L30,22.5h1.4l5.6,12.7H35.7Zm-0.6-1.4-2.8-6.3-2.8,6.3h5.7Z"/><polygon class="cls-2" points="20.5 59.7 20.5 58.3 13.2 58.3 13.2 58.3 12 58.3 12 71 20.5 71 20.5 69.5 13.4 69.5 13.4 65.3 19.8 65.3 19.8 63.9 13.4 63.9 13.4 59.7 20.5 59.7"/><polygon class="cls-2" points="24.9 69.5 32.6 59.7 32.9 59.3 32.9 58.3 22.9 58.3 22.9 59.7 30.9 59.7 23.2 69.5 22.9 69.9 22.9 71 32.9 71 32.9 69.5 24.9 69.5"/><rect class="cls-2" x="53.6" y="77.9" width="1.4" height="4.95"/><path class="cls-2" d="M21.8,84.3H14.9l-1.5,3.2H12l5.6-12.7h1.4l5.6,12.7H23.3Zm-0.6-1.4-2.8-6.3-2.8,6.3h5.7Z"/><path class="cls-2" d="M51.3,81.2a6.3,6.3,0,1,0-2.4,5l1.4,1.4,1-1-1.4-1.4A6.3,6.3,0,0,0,51.3,81.2Zm-6.3,5a5,5,0,1,1,4-2l-1.6-1.6-1,1,1.6,1.6A5,5,0,0,1,44.9,86.2Z"/><path class="cls-2" d="M36.8,87.5L33,82.2c2-.4,3.4-1.7,3.4-3.6s-1.8-3.8-4.9-3.8h-5V87.5h1.4V82.4h3.5l3.7,5.1h1.8Zm-9-6.5V76.2h3.5c1.9,0.1,3.5.7,3.5,2.4s-1.5,2.3-3.5,2.4H27.9Z"/><rect class="cls-2" x="29.2" y="48.4" width="5" height="1.42"/><rect class="cls-2" x="25.4" y="41.8" width="1.4" height="12.68"/><path class="cls-2" d="M22.6,48.1a6.3,6.3,0,0,1-6.3,6.3H12V41.8h4.2A6.3,6.3,0,0,1,22.6,48.1Zm-1.4,0a4.9,4.9,0,0,0-5-4.9H13.4V53h2.8A4.9,4.9,0,0,0,21.2,48.1Z"/></svg>