<svg id="Layer_1" data-name="Layer 1" xmlns="http://www.w3.org/2000/svg" viewBox="0 0 275.6 469.9"><defs><style>.cls-1,.cls-2{fill:none;stroke-linecap:round;stroke-linejoin:round;}.cls-1{stroke:#2dacc4;stroke-width:1.66px;}.cls-2{stroke:#2b2b2b;stroke-width:1.42px;}.cls-3{font-size:10.99px;fill:#2dacc4;font-family:Helvetica;}.cls-4{white-space:pre;}</style></defs><title>workingPS</title><line class="cls-1" x1="171.6" y1="288.8" x2="186.7" y2="288.8"/><polyline class="cls-1" points="183.2 280.5 193.3 288.8 183.2 297.1"/><line class="cls-1" x1="74.7" y1="288.8" x2="89.7" y2="288.8"/><polyline class="cls-1" points="86.3 280.5 96.4 288.8 86.3 297.1"/><line class="cls-1" x1="74.7" y1="155.6" x2="89.7" y2="155.6"/><polyline class="cls-1" points="86.3 147.3 96.4 155.6 86.3 163.9"/><line class="cls-1" x1="133.1" y1="91.1" x2="133.1" y2="106.1"/><polyline class="cls-1" points="141.4 102.7 133.1 112.8 124.8 102.7"/><line class="cls-1" x1="30.2" y1="222.9" x2="30.2" y2="238"/><polyline class="cls-1" points="38.5 234.5 30.2 244.7 21.9 234.5"/><line class="cls-1" x1="240.5" y1="345.1" x2="240.5" y2="360.1"/><polyline class="cls-1" points="248.8 356.7 240.5 366.8 232.2 356.7"/><path class="cls-2" d="M154.1,33.7a1.2,1.2,0,0,1-.4-2.1,16.3,16.3,0,0,0,7-13.6c0-8.8-6.6-16-14.7-16s-14.7,7.1-14.7,16a16.3,16.3,0,0,0,6.8,13.4,1.3,1.3,0,0,1-.5,2.4c-9.3,1.7-16,6.1-16,11.3v9.5a2.5,2.5,0,0,0,2.5,2.5h44a2.4,2.4,0,0,0,2.4-2.4V45C170.4,39.8,163.6,35.3,154.1,33.7Z" transform="translate(-15.9 -1.2)"/><text class="cls-3" transform="translate(99.4 78.9)">INTE<tspan x="25" y="0">R</tspan><tspan x="32.8" y="0">VIEW</tspan></text><path class="cls-2" d="M166.8,185.8H125.9a1.1,1.1,0,0,1-1.1-1.1V149.5a2.8,2.8,0,0,1,.6-1.8l15.7-19.2a2,2,0,0,1,1.6-.7h24.1a1.1,1.1,0,0,1,1.1,1.1v55.7A1.1,1.1,0,0,1,166.8,185.8Z" transform="translate(-15.9 -1.2)"/><path class="cls-2" d="M124.8,148.7l14.1-3.7c5.3-1.3,2.2-16.5,2.2-16.5" transform="translate(-15.9 -1.2)"/><line class="cls-2" x1="148.6" y1="135.5" x2="129.1" y2="135.5"/><line class="cls-2" x1="148.6" y1="142.2" x2="129.1" y2="142.2"/><line class="cls-2" x1="148.6" y1="148.9" x2="126.1" y2="148.9"/><line class="cls-2" x1="148.6" y1="155.6" x2="113" y2="155.6"/><line class="cls-2" x1="148.6" y1="162.3" x2="113" y2="162.3"/><line class="cls-2" x1="148.6" y1="169" x2="113" y2="169"/><line class="cls-2" x1="148.6" y1="175.7" x2="113" y2="175.7"/><text class="cls-3" transform="translate(113.5 208.2)">BRIEF</text><circle class="cls-2" cx="30.1" cy="155.6" r="26.6"/><path class="cls-2" d="M38.6,167h9.5a5.1,5.1,0,1,0,0-10.1H43.7a5.1,5.1,0,1,1,0-10.2h8.9" transform="translate(-15.9 -1.2)"/><line class="cls-2" x1="30.1" y1="140.9" x2="30.1" y2="145.4"/><line class="cls-2" x1="30.1" y1="165.8" x2="30.1" y2="170.2"/><text class="cls-3" transform="translate(8.6 208.2)">BUDGE<tspan x="39.1" y="0">T</tspan></text><rect class="cls-2" x="17.4" y="283" width="47.5" height="8.89" transform="translate(-207.1 112) rotate(-45)"/><path class="cls-2" d="M56.3,262.4h8.9a1.8,1.8,0,0,1,1.8,1.8v5.3a1.7,1.7,0,0,1-1.7,1.7h-9a0,0,0,0,1,0,0v-8.9a0,0,0,0,1,0,0Z" transform="translate(-186.5 120.6) rotate(-45)"/><polyline class="cls-2" points="5.3 299.9 0.7 310.8 11.6 306.1"/><line class="cls-2" x1="48.9" y1="274.8" x2="59.4" y2="274.8"/><line class="cls-2" x1="38.1" y1="283.8" x2="59.4" y2="283.8"/><line class="cls-2" x1="30.2" y1="292.8" x2="59.4" y2="292.8"/><line class="cls-2" x1="22" y1="301.8" x2="59.4" y2="301.8"/><line class="cls-2" x1="12.8" y1="310.8" x2="59.4" y2="310.8"/><text class="cls-3" transform="translate(9 335.7)">DESIGN</text><path class="cls-2" d="M166.8,313.3H125.9a1.1,1.1,0,0,1-1.1-1.1V277.1a2.8,2.8,0,0,1,.6-1.8l15.7-19.2a2,2,0,0,1,1.6-.7h24.1a1.1,1.1,0,0,1,1.1,1.1v55.7A1.1,1.1,0,0,1,166.8,313.3Z" transform="translate(-15.9 -1.2)"/><path class="cls-2" d="M124.8,276.3l14.1-3.7c5.3-1.3,2.2-16.5,2.2-16.5" transform="translate(-15.9 -1.2)"/><rect class="cls-2" x="121.3" y="278.7" width="20.2" height="20.24"/><polyline class="cls-2" points="123.8 288.1 127.7 293.4 138.8 284.3"/><text class="cls-3" transform="translate(84.3 335.7)">FINA<tspan x="25" y="0">L</tspan><tspan class="cls-4" x="30.8" y="0"> PROPOSA</tspan><tspan x="88.2" y="0">L</tspan></text><path class="cls-2" d="M282.5,275.8l-1.6-20.5h-10l-2,20.5h-9.8l0.2-7.2-18.5,7.2,0.2-7.2-17.8,7.2v37.9H287V275.8h-4.5Zm-38,11.4H233.2v-4.8h11.3v4.8Zm16.6,0H249.7v-4.8H261v4.8Zm16.6,0H266.3v-4.8h11.3v4.8Z" transform="translate(-15.9 -1.2)"/><text class="cls-3" transform="translate(201.7 335.5)">PRODUCTION</text><polygon class="cls-2" points="266.1 403.2 252.9 380.4 252.7 380.4 249.8 401.7 230.5 401.7 226.5 380.6 226.5 380.6 212.4 403 226.6 426 226.6 443.6 252.4 443.6 252.4 426 266.1 403.2"/><text class="cls-3" transform="translate(210.4 464.6)">ASSEMB<tspan x="45.8" y="0">L</tspan><tspan x="51.1" y="0">Y</tspan></text></svg>