<svg id="Layer_1" data-name="Layer 1" xmlns="http://www.w3.org/2000/svg" viewBox="0 0 791.6 108.1"><defs><style>.cls-1,.cls-2{fill:none;stroke-linecap:round;stroke-linejoin:round;stroke-width:1.7px;}.cls-1{stroke:#2b2b2b;}.cls-2{stroke:#2dacc4;}.cls-3{font-size:13.17px;fill:#2dacc4;font-family:Helvetica;}.cls-4{white-space:pre;}</style></defs><title>workingPB</title><path class="cls-1" d="M176.1,104.7h-49a1.4,1.4,0,0,1-1.4-1.4v-42a3.4,3.4,0,0,1,.8-2.1l18.8-23a2.4,2.4,0,0,1,1.9-.9h28.9a1.4,1.4,0,0,1,1.4,1.4v66.7A1.4,1.4,0,0,1,176.1,104.7Z" transform="translate(-4.6 -31.3)"/><path class="cls-1" d="M125.8,60.4L142.7,56c6.3-1.6,2.6-19.8,2.6-19.8" transform="translate(-4.6 -31.3)"/><line class="cls-1" x1="168.7" y1="14.6" x2="145.3" y2="14.6"/><line class="cls-1" x1="168.7" y1="22.6" x2="145.3" y2="22.6"/><line class="cls-1" x1="168.7" y1="30.7" x2="141.8" y2="30.7"/><line class="cls-1" x1="168.7" y1="38.7" x2="126" y2="38.7"/><line class="cls-1" x1="168.7" y1="46.7" x2="126" y2="46.7"/><line class="cls-1" x1="168.7" y1="54.8" x2="126" y2="54.8"/><line class="cls-1" x1="168.7" y1="62.8" x2="126" y2="62.8"/><circle class="cls-1" cx="258.3" cy="38.7" r="31.9"/><path class="cls-1" d="M254.2,82.2h11.4a6.1,6.1,0,1,0,0-12.1h-5.3a6.1,6.1,0,0,1,0-12.2h10.7" transform="translate(-4.6 -31.3)"/><line class="cls-1" x1="258.3" y1="21.1" x2="258.3" y2="26.5"/><line class="cls-1" x1="258.3" y1="50.9" x2="258.3" y2="56.2"/><path class="cls-1" d="M50.1,77.4a1.4,1.4,0,0,1-.5-2.6A19.5,19.5,0,0,0,58,58.5C58,48,50.1,39.4,40.4,39.4S22.8,48,22.8,58.5a19.6,19.6,0,0,0,8.1,16.1,1.6,1.6,0,0,1-.6,2.9c-11.2,2-19.1,7.3-19.1,13.5v11.4a3.1,3.1,0,0,0,3.1,3.1H66.8a2.8,2.8,0,0,0,2.8-2.8V91C69.7,84.7,61.5,79.4,50.1,77.4Z" transform="translate(-4.6 -31.3)"/><path class="cls-1" d="M529.2,104.7h-49a1.4,1.4,0,0,1-1.4-1.4v-42a3.4,3.4,0,0,1,.8-2.1l18.8-23a2.4,2.4,0,0,1,1.9-.9h28.9a1.4,1.4,0,0,1,1.4,1.4v66.7A1.4,1.4,0,0,1,529.2,104.7Z" transform="translate(-4.6 -31.3)"/><path class="cls-1" d="M479,60.4L495.9,56c6.3-1.6,2.6-19.8,2.6-19.8" transform="translate(-4.6 -31.3)"/><rect class="cls-1" x="489.1" y="33.4" width="24.2" height="24.25"/><polyline class="cls-1" points="492.2 44.7 496.8 50.9 510.1 40.1"/><rect class="cls-1" x="351" y="68.4" width="56.9" height="10.65" transform="translate(54.4 258.6) rotate(-45)"/><path class="cls-1" d="M397.7,43.7h10.7a2.2,2.2,0,0,1,2.2,2.2v6.4a2.1,2.1,0,0,1-2.1,2.1H397.7a0,0,0,0,1,0,0V43.7a0,0,0,0,1,0,0Z" transform="translate(79 268.8) rotate(-45)"/><polyline class="cls-1" points="351 58.7 345.4 71.8 358.5 66.3"/><line class="cls-1" x1="403.2" y1="28.7" x2="415.8" y2="28.7"/><line class="cls-1" x1="390.3" y1="39.5" x2="415.8" y2="39.5"/><line class="cls-1" x1="380.8" y1="50.2" x2="415.8" y2="50.2"/><line class="cls-1" x1="370.9" y1="61" x2="415.8" y2="61"/><line class="cls-1" x1="360" y1="71.8" x2="415.8" y2="71.8"/><polygon class="cls-1" points="789.8 28.2 774 0.9 773.8 0.9 770.3 26.3 747.2 26.3 742.4 1.1 742.3 1.1 725.5 28 742.5 55.5 742.5 76.6 773.5 76.6 773.5 55.5 789.8 28.2"/><path class="cls-1" d="M664.2,60l-1.9-24.5h-12L647.9,60H636.1l0.3-8.6L614.2,60l0.3-8.6L593.1,60v45.4h76.5V60h-5.4ZM618.6,73.7H605.1V67.9h13.5v5.8Zm19.9,0H624.9V67.9h13.5v5.8Zm19.9,0H644.8V67.9h13.5v5.8Z" transform="translate(-4.6 -31.3)"/><line class="cls-2" x1="80.3" y1="41" x2="95.7" y2="41"/><polyline class="cls-2" points="92.2 32.5 102.6 41 92.2 49.6"/><line class="cls-2" x1="191.3" y1="41" x2="206.7" y2="41"/><polyline class="cls-2" points="203.1 32.5 213.5 41 203.1 49.6"/><line class="cls-2" x1="310.7" y1="41" x2="326.1" y2="41"/><polyline class="cls-2" points="322.6 32.5 333 41 322.6 49.6"/><line class="cls-2" x1="433.6" y1="41" x2="449" y2="41"/><polyline class="cls-2" points="445.5 32.5 455.8 41 445.5 49.6"/><line class="cls-2" x1="544.4" y1="41" x2="559.8" y2="41"/><polyline class="cls-2" points="556.3 32.5 566.7 41 556.3 49.6"/><line class="cls-2" x1="686.8" y1="41" x2="702.2" y2="41"/><polyline class="cls-2" points="698.6 32.5 709 41 698.6 49.6"/><text class="cls-3" transform="translate(0 101.7)">INTE<tspan x="30" y="0">R</tspan><tspan x="39.3" y="0">VIEW</tspan></text><text class="cls-3" transform="translate(127.2 101.7)">BRIEF</text><text class="cls-3" transform="translate(232.3 101.7)">BUDGE<tspan x="46.8" y="0">T</tspan></text><text class="cls-3" transform="translate(358.8 101.7)">DESIGN</text><text class="cls-3" transform="translate(444.7 101.7)">FINA<tspan x="30" y="0">L</tspan><tspan class="cls-4" x="36.8" y="0"> PROPOSA</tspan><tspan x="105.7" y="0">L</tspan></text><text class="cls-3" transform="translate(582.4 101.7)">PRODUCTION</text><text class="cls-3" transform="translate(721.6 101.7)">ASSEMB<tspan x="54.9" y="0">L</tspan><tspan x="61.3" y="0">Y</tspan></text></svg>